<?xml version="1.0" encoding="UTF-8"?> <svg xmlns="http://www.w3.org/2000/svg" width="109" height="62" viewBox="0 0 109 62" fill="none"><mask id="mask0_178_1794" style="mask-type:luminance" maskUnits="userSpaceOnUse" x="25" y="45" width="15" height="17"><path d="M25.8774 45.5022H39.2563V61.542H25.8774V45.5022Z" fill="white"></path></mask><g mask="url(#mask0_178_1794)"><mask id="mask1_178_1794" style="mask-type:luminance" maskUnits="userSpaceOnUse" x="25" y="45" width="15" height="17"><path d="M29.5492 48.0207C29.5492 48.778 30.3006 49.8291 31.2556 51.1402C32.843 50.2247 33.358 49.2357 33.358 48.1846C33.358 47.8625 33.3099 47.5894 33.2177 47.3369C33.1485 47.0638 33.0102 46.8321 32.843 46.6475C32.6546 46.4648 32.4663 46.3273 32.2088 46.2105C31.9724 46.1219 31.7149 46.0748 31.4363 46.0748C30.8502 46.0748 30.3851 46.2595 30.0565 46.6211C29.7087 46.9903 29.5415 47.4462 29.5415 48.0207M34.5494 58.4508L30.0565 52.5605C29.2359 53.0653 28.7267 53.638 28.2808 54.301C27.8158 54.9905 27.5986 55.6309 27.5986 56.2526C27.5986 57.2151 27.8081 58.157 28.5806 59.0028C29.3743 59.8504 30.314 60.2385 31.3171 60.2385C32.2991 60.2385 33.4003 59.6658 34.2631 58.7504L34.5494 58.4508ZM39.1596 61.4742H36.7978L34.903 58.9557C34.8127 59.0725 34.7358 59.1196 34.6455 59.2081L34.438 59.4398C33.1485 60.6548 31.7015 61.412 30.3006 61.412C29.7375 61.412 29.3186 61.3235 28.7824 61.1125C28.2193 60.9072 27.7312 60.6077 27.3065 60.2178C26.8818 59.8297 26.534 59.372 26.2554 58.8389C25.9979 58.287 25.8787 57.7124 25.9075 57.072C25.9075 56.0887 26.165 55.2636 26.7012 54.593C27.2374 53.9243 28.1482 53.0785 29.7164 52.0688C28.7824 50.7841 28.031 49.6388 28.031 48.6066C28.031 47.8022 28.3577 47.0921 28.9919 46.4497C29.626 45.8092 30.4197 45.5022 31.4017 45.5022C32.2645 45.5022 33.0582 45.7056 33.7135 46.2105C34.3669 46.7172 34.6244 47.3369 34.6244 48.0885C34.6244 49.2828 33.8807 50.4507 31.5823 51.5979L35.837 57.0983L38.1776 54.6213H38.9713L38.9924 54.642L36.1848 57.5975L39.1596 61.4742Z" fill="white"></path></mask><g mask="url(#mask1_178_1794)"><path d="M22.3984 42.0894H86.4641V64.9558H22.3984V42.0894Z" fill="white"></path></g></g><mask id="mask2_178_1794" style="mask-type:luminance" maskUnits="userSpaceOnUse" x="46" y="46" width="6" height="16"><path d="M46.0732 46.6404H51.9921V61.1073H46.0732V46.6404Z" fill="white"></path></mask><g mask="url(#mask2_178_1794)"><mask id="mask3_178_1794" style="mask-type:luminance" maskUnits="userSpaceOnUse" x="46" y="46" width="6" height="16"><path d="M50.5655 49.8078C50.5655 48.3065 49.9255 47.0444 48.246 47.0444H47.2102V60.8671H48.246C49.9255 60.8671 50.5655 59.5824 50.5655 58.0811V49.8078ZM51.6877 50.0753V57.8155C51.6877 59.8499 50.6904 61.0649 48.246 61.0649H46.0879V46.8391H48.246C50.6904 46.8391 51.6877 48.0409 51.6877 50.0678" fill="white"></path></mask><g mask="url(#mask3_178_1794)"><path d="M22.3975 42.0894H86.4632V64.9558H22.3975V42.0894Z" fill="white"></path></g></g><mask id="mask4_178_1794" style="mask-type:luminance" maskUnits="userSpaceOnUse" x="53" y="46" width="5" height="16"><path d="M53.7334 46.6404H57.9112V61.1073H53.7334V46.6404Z" fill="white"></path></mask><g mask="url(#mask4_178_1794)"><mask id="mask5_178_1794" style="mask-type:luminance" maskUnits="userSpaceOnUse" x="53" y="46" width="5" height="16"><path d="M57.6329 60.8671V61.0706H53.9644V46.8391H57.237V47.0444H55.077V53.8296H56.8181V54.033H55.077V60.8596L57.6329 60.8671Z" fill="white"></path></mask><g mask="url(#mask5_178_1794)"><path d="M22.397 42.0894H86.4627V64.9558H22.397V42.0894Z" fill="white"></path></g></g><mask id="mask6_178_1794" style="mask-type:luminance" maskUnits="userSpaceOnUse" x="58" y="46" width="7" height="16"><path d="M58.9561 46.6404H64.5271V61.5424H58.9561V46.6404Z" fill="white"></path></mask><g mask="url(#mask6_178_1794)"><mask id="mask7_178_1794" style="mask-type:luminance" maskUnits="userSpaceOnUse" x="59" y="46" width="6" height="16"><path d="M64.3731 58.5055C64.498 60.4156 63.4814 61.2087 61.8249 61.2087C60.1665 61.2087 59.2344 60.5795 59.2748 58.5055C59.2959 57.7125 59.4016 57.2623 59.4016 57.2623H60.522C60.522 57.2623 60.3759 57.931 60.3971 58.7636C60.4182 60.1632 60.7929 61.058 61.8249 61.058C62.8549 61.058 63.3776 60.1839 63.2527 58.7636C63.0644 56.7311 59.0884 52.2177 59.0884 49.3997C59.0884 47.3238 59.9166 46.6965 61.5731 46.6965C63.2316 46.6965 64.081 47.4067 64.0598 49.3997C64.0598 50.1908 63.9561 50.641 63.9561 50.641H62.8338C62.8338 50.641 62.9375 49.9309 62.9375 49.1397C62.9375 47.7194 62.6051 46.8453 61.5674 46.8453C60.5297 46.8453 60.201 47.7816 60.201 49.1397C60.201 52.0482 64.1982 56.0266 64.3654 58.5055" fill="white"></path></mask><g mask="url(#mask7_178_1794)"><path d="M22.3975 42.0894H86.4632V64.9558H22.3975V42.0894Z" fill="white"></path></g></g><mask id="mask8_178_1794" style="mask-type:luminance" maskUnits="userSpaceOnUse" x="66" y="46" width="2" height="16"><path d="M66.3599 46.8389H67.4802V61.0647H66.3599V46.8389Z" fill="white"></path></mask><g mask="url(#mask8_178_1794)"><path d="M22.397 42.0894H86.4627V64.9558H22.397V42.0894Z" fill="white"></path></g><mask id="mask9_178_1794" style="mask-type:luminance" maskUnits="userSpaceOnUse" x="70" y="46" width="7" height="16"><path d="M70.0986 46.6404H76.0175V61.5424H70.0986V46.6404Z" fill="white"></path></mask><g mask="url(#mask9_178_1794)"><mask id="mask10_178_1794" style="mask-type:luminance" maskUnits="userSpaceOnUse" x="70" y="46" width="6" height="16"><path d="M74.5688 50.7437V48.9541C74.5688 47.596 73.9692 46.8387 72.9315 46.8387C71.8957 46.8387 71.2961 47.5884 71.2961 48.9541V58.9548C71.2961 60.2922 71.8957 61.0702 72.9315 61.0702C73.9692 61.0702 74.5688 60.2997 74.5688 58.9548V55.0913H73.0794V54.8859H75.6891V61.0645H75.4816L75.3759 60.1283C74.9454 60.9214 74.0537 61.2284 72.9315 61.2284C71.275 61.2284 70.1738 60.5993 70.1738 58.6892V49.2216C70.1738 47.2889 71.275 46.6824 72.9315 46.6824C74.5899 46.6824 75.6891 47.2889 75.6891 49.2216V50.7437H74.5688Z" fill="white"></path></mask><g mask="url(#mask10_178_1794)"><path d="M22.3975 42.0896H86.4632V64.956H22.3975V42.0896Z" fill="white"></path></g></g><mask id="mask11_178_1794" style="mask-type:luminance" maskUnits="userSpaceOnUse" x="77" y="46" width="6" height="16"><path d="M77.4111 46.6404H82.9802V61.1073H77.4111V46.6404Z" fill="white"></path></mask><g mask="url(#mask11_178_1794)"><mask id="mask12_178_1794" style="mask-type:luminance" maskUnits="userSpaceOnUse" x="77" y="46" width="6" height="16"><path d="M82.8207 46.8391V61.0649H82.6112L78.4469 49.4198V61.0649H78.2393V48.8321L77.5571 46.8391H78.6775L82.6189 57.8362V46.8391H82.8207Z" fill="white"></path></mask><g mask="url(#mask12_178_1794)"><path d="M22.397 42.0894H86.4627V64.9558H22.397V42.0894Z" fill="white"></path></g></g><mask id="mask13_178_1794" style="mask-type:luminance" maskUnits="userSpaceOnUse" x="0" y="1" width="15" height="38"><path d="M0 1.34961H14.4972V1.81878H0V1.34961ZM0 1.81878H2.89795V19.4345H0V1.81878ZM0 19.4345H13.4128V19.966H0V19.4345ZM0 19.966H2.89795V38.1609H0V19.966Z" fill="white"></path></mask><g mask="url(#mask13_178_1794)"><path d="M0 1.34961H14.486V38.3809H0V1.34961Z" fill="white"></path></g><mask id="mask14_178_1794" style="mask-type:luminance" maskUnits="userSpaceOnUse" x="16" y="1" width="15" height="38"><path d="M16.8555 1.34961H19.7497V37.6294H16.8555V1.34961ZM16.8555 37.6294H30.3281V38.1609H16.8555V37.6294Z" fill="white"></path></mask><g mask="url(#mask14_178_1794)"><path d="M16.8555 1.34961H30.0776V38.3845H16.8555V1.34961Z" fill="white"></path></g><mask id="mask15_178_1794" style="mask-type:luminance" maskUnits="userSpaceOnUse" x="32" y="0" width="28" height="40"><path d="M32.688 0.389648H59.3192V39.2279H32.688V0.389648Z" fill="white"></path></mask><g mask="url(#mask15_178_1794)"><mask id="mask16_178_1794" style="mask-type:luminance" maskUnits="userSpaceOnUse" x="32" y="0" width="28" height="40"><path d="M56.7204 19.7575C56.7204 9.22686 52.5361 0.774512 45.8727 0.774512C39.1719 0.774512 34.9877 9.22686 34.9877 19.7575C34.9877 30.2258 39.1719 38.7441 45.8727 38.7441C52.5361 38.7441 56.7204 30.2258 56.7204 19.7575ZM59.0201 19.7575C59.0201 30.442 54.0319 39.1253 45.8727 39.1253C37.6762 39.1253 32.688 30.442 32.688 19.7575C32.688 9.0106 37.6762 0.389648 45.8727 0.389648C54.0319 0.389648 59.0201 9.0106 59.0201 19.7575Z" fill="white"></path></mask><g mask="url(#mask16_178_1794)"><path d="M32.688 0.389648H59.3192V39.2279H32.688V0.389648Z" fill="white"></path></g></g><mask id="mask17_178_1794" style="mask-type:luminance" maskUnits="userSpaceOnUse" x="61" y="0" width="28" height="40"><path d="M61.3848 0.389648H88.0122V39.2279H61.3848V0.389648Z" fill="white"></path></mask><g mask="url(#mask17_178_1794)"><mask id="mask18_178_1794" style="mask-type:luminance" maskUnits="userSpaceOnUse" x="61" y="0" width="27" height="40"><path d="M85.4134 19.7575C85.4134 9.22686 81.2329 0.774512 74.5695 0.774512C67.865 0.774512 63.6844 9.22686 63.6844 19.7575C63.6844 30.2258 67.865 38.7441 74.5695 38.7441C81.2329 38.7441 85.4134 30.2258 85.4134 19.7575ZM87.7131 19.7575C87.7131 30.442 82.7249 39.1253 74.5695 39.1253C66.373 39.1253 61.3848 30.442 61.3848 19.7575C61.3848 9.0106 66.373 0.389648 74.5695 0.389648C82.7249 0.389648 87.7131 9.0106 87.7131 19.7575Z" fill="white"></path></mask><g mask="url(#mask18_178_1794)"><path d="M61.3848 0.389648H88.0122V39.2279H61.3848V0.389648Z" fill="white"></path></g></g><mask id="mask19_178_1794" style="mask-type:luminance" maskUnits="userSpaceOnUse" x="90" y="0" width="19" height="40"><path d="M90.0757 0H109V39.7509H90.0757V0Z" fill="white"></path></mask><g mask="url(#mask19_178_1794)"><mask id="mask20_178_1794" style="mask-type:luminance" maskUnits="userSpaceOnUse" x="90" y="0" width="19" height="40"><path d="M94.0505 31.9437C99.2257 31.9437 105.336 27.4793 105.336 16.2559C105.336 4.96658 99.2257 0.502156 94.0505 0.502156H93.2391V31.9437H94.0505ZM105.16 39.5127L100.497 31.097C98.3096 32.0647 95.8903 32.5155 93.4672 32.5155H93.2391V39.5127H90.0757V0H93.4672C101.08 0 108.798 4.34346 108.798 16.2559C108.798 22.63 106.555 26.8158 103.324 29.3486L108.974 39.5127H105.16Z" fill="white"></path></mask><g mask="url(#mask20_178_1794)"><path d="M90.0757 0H109V39.7509H90.0757V0Z" fill="white"></path></g></g></svg> 