<svg xmlns="http://www.w3.org/2000/svg" width="109" height="62" viewBox="0 0 109 62" fill="none">
					  <mask id="mask0_496_4074" style="mask-type:luminance" maskUnits="userSpaceOnUse" x="25" y="45" width="15" height="17">
						<path d="M25.8779 45.5022H39.2568V61.542H25.8779V45.5022Z" fill="white"></path>
					  </mask>
					  <g mask="url(#mask0_496_4074)">
						<mask id="mask1_496_4074" style="mask-type:luminance" maskUnits="userSpaceOnUse" x="25" y="45" width="15" height="17">
						  <path d="M29.5501 48.0207C29.5501 48.778 30.3015 49.8291 31.2566 51.1402C32.8439 50.2247 33.359 49.2357 33.359 48.1846C33.359 47.8625 33.3109 47.5894 33.2187 47.3369C33.1495 47.0638 33.0111 46.8321 32.8439 46.6475C32.6556 46.4648 32.4673 46.3273 32.2098 46.2105C31.9734 46.1219 31.7159 46.0748 31.4373 46.0748C30.8511 46.0748 30.3861 46.2595 30.0575 46.6211C29.7096 46.9903 29.5425 47.4462 29.5425 48.0207M34.5504 58.4508L30.0575 52.5605C29.2369 53.0653 28.7277 53.638 28.2818 54.301C27.8168 54.9905 27.5996 55.6309 27.5996 56.2526C27.5996 57.2151 27.8091 58.157 28.5816 59.0028C29.3753 59.8504 30.315 60.2385 31.3181 60.2385C32.3001 60.2385 33.4012 59.6658 34.2641 58.7504L34.5504 58.4508ZM39.1606 61.4742H36.7988L34.904 58.9557C34.8137 59.0725 34.7368 59.1196 34.6465 59.2081L34.439 59.4398C33.1495 60.6548 31.7024 61.412 30.3015 61.412C29.7385 61.412 29.3195 61.3235 28.7834 61.1125C28.2203 60.9072 27.7322 60.6077 27.3075 60.2178C26.8828 59.8297 26.535 59.372 26.2563 58.8389C25.9988 58.287 25.8797 57.7124 25.9085 57.072C25.9085 56.0887 26.166 55.2636 26.7022 54.593C27.2383 53.9243 28.1492 53.0785 29.7173 52.0688C28.7834 50.7841 28.032 49.6388 28.032 48.6066C28.032 47.8022 28.3587 47.0921 28.9928 46.4497C29.627 45.8092 30.4207 45.5022 31.4027 45.5022C32.2655 45.5022 33.0592 45.7056 33.7145 46.2105C34.3679 46.7172 34.6254 47.3369 34.6254 48.0885C34.6254 49.2828 33.8817 50.4507 31.5833 51.5979L35.838 57.0983L38.1786 54.6213H38.9723L38.9934 54.642L36.1858 57.5975L39.1606 61.4742Z" fill="white"></path>
						</mask>
						<g mask="url(#mask1_496_4074)">
						  <path d="M22.3994 42.0894H86.4651V64.9558H22.3994V42.0894Z" fill="#476575"></path>
						</g>
					  </g>
					  <mask id="mask2_496_4074" style="mask-type:luminance" maskUnits="userSpaceOnUse" x="46" y="46" width="6" height="16">
						<path d="M46.0732 46.6404H51.9921V61.1073H46.0732V46.6404Z" fill="white"></path>
					  </mask>
					  <g mask="url(#mask2_496_4074)">
						<mask id="mask3_496_4074" style="mask-type:luminance" maskUnits="userSpaceOnUse" x="46" y="46" width="6" height="16">
						  <path d="M50.5655 49.8078C50.5655 48.3065 49.9255 47.0444 48.246 47.0444H47.2102V60.8671H48.246C49.9255 60.8671 50.5655 59.5824 50.5655 58.0811V49.8078ZM51.6877 50.0753V57.8155C51.6877 59.8499 50.6904 61.0649 48.246 61.0649H46.0879V46.8391H48.246C50.6904 46.8391 51.6877 48.0409 51.6877 50.0678" fill="white"></path>
						</mask>
						<g mask="url(#mask3_496_4074)">
						  <path d="M22.3975 42.0894H86.4632V64.9558H22.3975V42.0894Z" fill="#476575"></path>
						</g>
					  </g>
					  <mask id="mask4_496_4074" style="mask-type:luminance" maskUnits="userSpaceOnUse" x="53" y="46" width="5" height="16">
						<path d="M53.7344 46.6404H57.9122V61.1073H53.7344V46.6404Z" fill="white"></path>
					  </mask>
					  <g mask="url(#mask4_496_4074)">
						<mask id="mask5_496_4074" style="mask-type:luminance" maskUnits="userSpaceOnUse" x="53" y="46" width="5" height="16">
						  <path d="M57.6343 60.8671V61.0706H53.9658V46.8391H57.2385V47.0444H55.0785V53.8296H56.8195V54.033H55.0785V60.8596L57.6343 60.8671Z" fill="white"></path>
						</mask>
						<g mask="url(#mask5_496_4074)">
						  <path d="M22.3984 42.0894H86.4641V64.9558H22.3984V42.0894Z" fill="#476575"></path>
						</g>
					  </g>
					  <mask id="mask6_496_4074" style="mask-type:luminance" maskUnits="userSpaceOnUse" x="58" y="46" width="7" height="16">
						<path d="M58.9561 46.6404H64.5271V61.5424H58.9561V46.6404Z" fill="white"></path>
					  </mask>
					  <g mask="url(#mask6_496_4074)">
						<mask id="mask7_496_4074" style="mask-type:luminance" maskUnits="userSpaceOnUse" x="59" y="46" width="6" height="16">
						  <path d="M64.3735 58.5055C64.4985 60.4156 63.4819 61.2087 61.8254 61.2087C60.1669 61.2087 59.2349 60.5795 59.2753 58.5055C59.2964 57.7125 59.4021 57.2623 59.4021 57.2623H60.5225C60.5225 57.2623 60.3764 57.931 60.3975 58.7636C60.4187 60.1632 60.7934 61.058 61.8254 61.058C62.8554 61.058 63.3781 60.1839 63.2532 58.7636C63.0649 56.7311 59.0889 52.2177 59.0889 49.3997C59.0889 47.3238 59.9171 46.6965 61.5736 46.6965C63.2321 46.6965 64.0815 47.4067 64.0603 49.3997C64.0603 50.1908 63.9565 50.641 63.9565 50.641H62.8343C62.8343 50.641 62.938 49.9309 62.938 49.1397C62.938 47.7194 62.6056 46.8453 61.5679 46.8453C60.5301 46.8453 60.2015 47.7816 60.2015 49.1397C60.2015 52.0482 64.1987 56.0266 64.3659 58.5055" fill="white"></path>
						</mask>
						<g mask="url(#mask7_496_4074)">
						  <path d="M22.3975 42.0894H86.4632V64.9558H22.3975V42.0894Z" fill="#476575"></path>
						</g>
					  </g>
					  <mask id="mask8_496_4074" style="mask-type:luminance" maskUnits="userSpaceOnUse" x="66" y="46" width="2" height="16">
						<path d="M66.3604 46.8389H67.4807V61.0647H66.3604V46.8389Z" fill="white"></path>
					  </mask>
					  <g mask="url(#mask8_496_4074)">
						<path d="M22.3975 42.0894H86.4632V64.9558H22.3975V42.0894Z" fill="#476575"></path>
					  </g>
					  <mask id="mask9_496_4074" style="mask-type:luminance" maskUnits="userSpaceOnUse" x="70" y="46" width="7" height="16">
						<path d="M70.0986 46.6404H76.0175V61.5424H70.0986V46.6404Z" fill="white"></path>
					  </mask>
					  <g mask="url(#mask9_496_4074)">
						<mask id="mask10_496_4074" style="mask-type:luminance" maskUnits="userSpaceOnUse" x="70" y="46" width="6" height="16">
						  <path d="M74.5688 50.7437V48.9541C74.5688 47.596 73.9692 46.8387 72.9315 46.8387C71.8957 46.8387 71.2961 47.5884 71.2961 48.9541V58.9548C71.2961 60.2922 71.8957 61.0702 72.9315 61.0702C73.9692 61.0702 74.5688 60.2997 74.5688 58.9548V55.0913H73.0794V54.8859H75.6891V61.0645H75.4816L75.3759 60.1283C74.9454 60.9214 74.0537 61.2284 72.9315 61.2284C71.275 61.2284 70.1738 60.5993 70.1738 58.6892V49.2216C70.1738 47.2889 71.275 46.6824 72.9315 46.6824C74.5899 46.6824 75.6891 47.2889 75.6891 49.2216V50.7437H74.5688Z" fill="white"></path>
						</mask>
						<g mask="url(#mask10_496_4074)">
						  <path d="M22.3975 42.0896H86.4632V64.956H22.3975V42.0896Z" fill="#476575"></path>
						</g>
					  </g>
					  <mask id="mask11_496_4074" style="mask-type:luminance" maskUnits="userSpaceOnUse" x="77" y="46" width="6" height="16">
						<path d="M77.4111 46.6404H82.9802V61.1073H77.4111V46.6404Z" fill="white"></path>
					  </mask>
					  <g mask="url(#mask11_496_4074)">
						<mask id="mask12_496_4074" style="mask-type:luminance" maskUnits="userSpaceOnUse" x="77" y="46" width="6" height="16">
						  <path d="M82.8212 46.8391V61.0649H82.6117L78.4474 49.4198V61.0649H78.2398V48.8321L77.5576 46.8391H78.678L82.6194 57.8362V46.8391H82.8212Z" fill="white"></path>
						</mask>
						<g mask="url(#mask12_496_4074)">
						  <path d="M22.3975 42.0894H86.4632V64.9558H22.3975V42.0894Z" fill="#476575"></path>
						</g>
					  </g>
					  <mask id="mask13_496_4074" style="mask-type:luminance" maskUnits="userSpaceOnUse" x="0" y="1" width="15" height="38">
						<path d="M0 1.34961H14.4972V1.81878H0V1.34961ZM0 1.81878H2.89795V19.4345H0V1.81878ZM0 19.4345H13.4128V19.966H0V19.4345ZM0 19.966H2.89795V38.1609H0V19.966Z" fill="white"></path>
					  </mask>
					  <g mask="url(#mask13_496_4074)">
						<path d="M0 1.34961H14.486V38.3809H0V1.34961Z" fill="#476575"></path>
					  </g>
					  <mask id="mask14_496_4074" style="mask-type:luminance" maskUnits="userSpaceOnUse" x="16" y="1" width="15" height="38">
						<path d="M16.8555 1.34961H19.7497V37.6294H16.8555V1.34961ZM16.8555 37.6294H30.3281V38.1609H16.8555V37.6294Z" fill="white"></path>
					  </mask>
					  <g mask="url(#mask14_496_4074)">
						<path d="M16.8555 1.34961H30.0776V38.3845H16.8555V1.34961Z" fill="#476575"></path>
					  </g>
					  <mask id="mask15_496_4074" style="mask-type:luminance" maskUnits="userSpaceOnUse" x="32" y="0" width="28" height="40">
						<path d="M32.6875 0.389648H59.3187V39.2279H32.6875V0.389648Z" fill="white"></path>
					  </mask>
					  <g mask="url(#mask15_496_4074)">
						<mask id="mask16_496_4074" style="mask-type:luminance" maskUnits="userSpaceOnUse" x="32" y="0" width="28" height="40">
						  <path d="M56.7199 19.7575C56.7199 9.22686 52.5356 0.774512 45.8722 0.774512C39.1714 0.774512 34.9872 9.22686 34.9872 19.7575C34.9872 30.2258 39.1714 38.7441 45.8722 38.7441C52.5356 38.7441 56.7199 30.2258 56.7199 19.7575ZM59.0196 19.7575C59.0196 30.442 54.0314 39.1253 45.8722 39.1253C37.6757 39.1253 32.6875 30.442 32.6875 19.7575C32.6875 9.0106 37.6757 0.389648 45.8722 0.389648C54.0314 0.389648 59.0196 9.0106 59.0196 19.7575Z" fill="white"></path>
						</mask>
						<g mask="url(#mask16_496_4074)">
						  <path d="M32.6875 0.389648H59.3187V39.2279H32.6875V0.389648Z" fill="#476575"></path>
						</g>
					  </g>
					  <mask id="mask17_496_4074" style="mask-type:luminance" maskUnits="userSpaceOnUse" x="61" y="0" width="28" height="40">
						<path d="M61.3848 0.389648H88.0122V39.2279H61.3848V0.389648Z" fill="white"></path>
					  </mask>
					  <g mask="url(#mask17_496_4074)">
						<mask id="mask18_496_4074" style="mask-type:luminance" maskUnits="userSpaceOnUse" x="61" y="0" width="27" height="40">
						  <path d="M85.4134 19.7575C85.4134 9.22686 81.2329 0.774512 74.5695 0.774512C67.865 0.774512 63.6844 9.22686 63.6844 19.7575C63.6844 30.2258 67.865 38.7441 74.5695 38.7441C81.2329 38.7441 85.4134 30.2258 85.4134 19.7575ZM87.7131 19.7575C87.7131 30.442 82.7249 39.1253 74.5695 39.1253C66.373 39.1253 61.3848 30.442 61.3848 19.7575C61.3848 9.0106 66.373 0.389648 74.5695 0.389648C82.7249 0.389648 87.7131 9.0106 87.7131 19.7575Z" fill="white"></path>
						</mask>
						<g mask="url(#mask18_496_4074)">
						  <path d="M61.3848 0.389648H88.0122V39.2279H61.3848V0.389648Z" fill="#476575"></path>
						</g>
					  </g>
					  <mask id="mask19_496_4074" style="mask-type:luminance" maskUnits="userSpaceOnUse" x="90" y="0" width="19" height="40">
						<path d="M90.0752 0H109V39.7509H90.0752V0Z" fill="white"></path>
					  </mask>
					  <g mask="url(#mask19_496_4074)">
						<mask id="mask20_496_4074" style="mask-type:luminance" maskUnits="userSpaceOnUse" x="90" y="0" width="19" height="40">
						  <path d="M94.0501 31.9437C99.2252 31.9437 105.335 27.4793 105.335 16.2559C105.335 4.96658 99.2252 0.502156 94.0501 0.502156H93.2386V31.9437H94.0501ZM105.159 39.5127L100.497 31.097C98.3091 32.0647 95.8898 32.5155 93.4667 32.5155H93.2386V39.5127H90.0752V0H93.4667C101.08 0 108.798 4.34346 108.798 16.2559C108.798 22.63 106.554 26.8158 103.323 29.3486L108.974 39.5127H105.159Z" fill="white"></path>
						</mask>
						<g mask="url(#mask20_496_4074)">
						  <path d="M90.0752 0H109V39.7509H90.0752V0Z" fill="#476575"></path>
						</g>
					  </g>
					</svg>